# xmcd
#
# Track frame offsets:
#	182
#	18635
#	34607
#	48710
#	72075
#	81695
#	91102
#	103592
#	125532
#	139075
#	154220
#	170280
#	187052
#	203285
#	217407
#	242165
#	261332
#	279120
#	295557
#
# Disc length: 4153 seconds
#
# Revision: 1
# Processed by: cddbd v1.5.2PL0 Copyright (c) Steve Scherf et al.
# Submitted via: audiograbber 1.83.01
#
DISCID=18103713
DTITLE=Diversen - Fèrse Boogaloo
DYEAR=1996
DGENRE=Country Cajun and Zydeco
TTITLE0=River Zydeco Band - Da'squeeze(instr)
TTITLE1=R Cajun and Zydeco Brothers - Zydeco est pas Salé
TTITLE2=Louisiana Radio - Hey pretty baby
TTITLE3=Pierre le Rue - Nonc Adam
TTITLE4=Allez Mama - Madam Taneaux(instr)
TTITLE5=Potato Joe - Hey hey little girl
TTITLE6=Max Tax  y sus Banditos - Allons au grand coteaux
TTITLE7=Check out the Zydeco - Rainfall
TTITLE8=Les Bons Temp Rouler - The backdoor
TTITLE9=Hank van Damme Cajun Band - Le danse de Mardi Grass
TTITLE10=River Zydeco Band - Ohh what can I do
TTITLE11=R Cajun and Zydeco Brothers - Hey Boozoo
TTITLE12=Louisiana Radio - I wanna now
TTITLE13=Frank Savoy and Allez Mama - C'est lavie
TTITLE14=Stompin Crawfish - Co'fair
TTITLE15=Pierre le Rue - Regular Guy
TTITLE16=River Zydeco Band - Mama
TTITLE17=Boogalusa - Goodnight Bob
TTITLE18=Cajun Company - La valse de durald
EXTD=
EXTT0=
EXTT1=
EXTT2=
EXTT3=
EXTT4=
EXTT5=
EXTT6=
EXTT7=
EXTT8=
EXTT9=
EXTT10=
EXTT11=
EXTT12=
EXTT13=
EXTT14=
EXTT15=
EXTT16=
EXTT17=
EXTT18=
PLAYORDER=
